HIERARCHY
ROOT Hips
{
	OFFSET 0.000000 0.000000 0.000000
	CHANNELS 6 Xposition Yposition Zposition Zrotation Yrotation Xrotation 
	JOINT LowerBack
	{
		OFFSET 0.000000 0.000000 0.000000
		CHANNELS 3 Zrotation Yrotation Xrotation
		JOINT Spine
		{
			OFFSET 0.028270 2.035590 -0.193380
			CHANNELS 3 Zrotation Yrotation Xrotation
			JOINT Spine1
			{
				OFFSET 0.056720 2.048850 -0.042750
				CHANNELS 3 Zrotation Yrotation Xrotation
				JOINT Neck
				{
					OFFSET 0.000000 0.000000 0.000000
					CHANNELS 3 Zrotation Yrotation Xrotation
					JOINT Neck1
					{
						OFFSET -0.054170 1.746240 0.172020
						CHANNELS 3 Zrotation Yrotation Xrotation
						JOINT Head
						{
							OFFSET 0.104070 1.761360 -0.123970
							CHANNELS 3 Zrotation Yrotation Xrotation
							End Site
							{
								OFFSET 0.000000 0.000000 0.000000
							}
						}
					}
				}
				JOINT LeftShoulder
				{
					OFFSET 0.000000 0.000000 0.000000
					CHANNELS 3 Zrotation Yrotation Xrotation
					JOINT LeftArm
					{
						OFFSET 3.362410 1.200890 -0.311210
						CHANNELS 3 Zrotation Yrotation Xrotation
						JOINT LeftForeArm
						{
							OFFSET 4.983000 -0.000000 -0.000000
							CHANNELS 3 Zrotation Yrotation Xrotation
							JOINT LeftHand
							{
								OFFSET 3.483560 -0.000000 -0.000000
								CHANNELS 3 Zrotation Yrotation Xrotation
								JOINT LeftFingerBase
								{
									OFFSET 0.000000 0.000000 0.000000
									CHANNELS 3 Zrotation Yrotation Xrotation
									JOINT LeftHandIndex1
									{
										OFFSET 0.715260 -0.000000 -0.000000
										CHANNELS 3 Zrotation Yrotation Xrotation
										End Site
										{
											OFFSET 0.000000 0.000000 0.000000
										}
									}
								}
								JOINT LThumb
								{
									OFFSET 0.000000 0.000000 0.000000
									CHANNELS 3 Zrotation Yrotation Xrotation
									End Site
									{
										OFFSET 0.000000 0.000000 0.000000
									}
								}
							}
						}
					}
				}
				JOINT RightShoulder
				{
					OFFSET 0.000000 0.000000 0.000000
					CHANNELS 3 Zrotation Yrotation Xrotation
					JOINT RightArm
					{
						OFFSET -3.136600 1.374050 -0.404650
						CHANNELS 3 Zrotation Yrotation Xrotation
						JOINT RightForeArm
						{
							OFFSET -5.241900 -0.000000 -0.000000
							CHANNELS 3 Zrotation Yrotation Xrotation
							JOINT RightHand
							{
								OFFSET -3.444170 -0.000000 -0.000000
								CHANNELS 3 Zrotation Yrotation Xrotation
								JOINT RightFingerBase
								{
									OFFSET 0.000000 0.000000 0.000000
									CHANNELS 3 Zrotation Yrotation Xrotation
									JOINT RightHandIndex1
									{
										OFFSET -0.622530 -0.000000 -0.000000
										CHANNELS 3 Zrotation Yrotation Xrotation
										End Site
										{
											OFFSET 0.000000 0.000000 0.000000
										}
									}
								}
								JOINT RThumb
								{
									OFFSET 0.000000 0.000000 0.000000
									CHANNELS 3 Zrotation Yrotation Xrotation
									End Site
									{
										OFFSET 0.000000 0.000000 0.000000
									}
								}
							}
						}
					}
				}
			}
		}
	}
}
}
MOTION
Frames: 17
Frame Time: 0.008333
9.913967 21.464821 1.127667 48.265987 -81.233347 -1.647082 -0.953959 -2.279891 -5.737623 -0.316702 -2.300584 -3.410768 -2.792596 -2.426797 3.083489 4.440686 -12.117183 -6.898641 -0.773128 -0.054399 -0.016173 0.000000 0.000000 0.000000 6.557440 3.689346 3.013013 -19.247904 -17.569877 0.441671 -0.404714 -78.309362 0.018938 -2.725793 -0.303902 0.016363 -0.041906 0.357287 0.000000 0.000000 0.000000 0.000000 0.000000 0.000000 0.000000 2.494502 -9.455257 3.457985 11.750373 23.532155 -2.065798 1.198300 60.641337 0.003122 -1.753434 5.062227 -0.087914 0.131309 -0.316076 0.000000 0.000000 0.000000 0.000000 0.000000 0.000000 0.000000 
9.833639 21.488317 1.109667 48.784162 -81.408822 -0.472431 -0.904451 -2.329728 -5.880710 -0.268895 -2.356623 -3.428782 -2.631622 -2.492475 3.232436 4.312686 -12.812258 -7.134554 -0.590401 -0.035507 -0.100870 0.000000 0.000000 0.000000 7.073635 4.651624 3.118311 -17.193555 -16.438321 -1.692810 -0.351984 -79.242339 0.021858 -3.153418 -0.260242 0.017792 -0.034641 0.365748 0.000000 0.000000 0.000000 0.000000 0.000000 0.000000 0.000000 1.850415 -10.046101 3.366417 9.417181 22.485301 -4.492915 1.056849 62.979748 0.002407 -1.762295 5.139470 -0.089854 0.128613 -0.333234 0.000000 0.000000 0.000000 0.000000 0.000000 0.000000 0.000000 
9.746997 21.501835 1.091675 49.320686 -81.601521 0.594250 -0.879093 -2.384671 -5.972939 -0.228750 -2.416397 -3.434583 -2.485259 -2.561715 3.378518 4.240297 -13.515007 -7.418704 -0.416018 -0.015963 -0.201003 0.000000 0.000000 0.000000 7.622318 5.744453 3.226373 -15.461721 -15.210620 -3.856074 -0.308194 -80.044953 0.024179 -3.462625 -0.192325 0.017725 -0.030447 0.374667 0.000000 0.000000 0.000000 0.000000 0.000000 0.000000 0.000000 1.298496 -10.640525 3.278626 7.319836 21.275370 -7.034347 0.930644 65.185266 0.001338 -1.826332 5.141805 -0.093200 0.127323 -0.348904 0.000000 0.000000 0.000000 0.000000 0.000000 0.000000 0.000000 
9.653989 21.507587 1.073437 49.895976 -81.795839 1.507911 -0.881329 -2.447226 -5.998712 -0.197088 -2.482108 -3.424696 -2.351345 -2.636397 3.516563 4.218352 -14.200374 -7.743402 -0.250817 0.004058 -0.314473 0.000000 0.000000 0.000000 8.195623 6.906752 3.335057 -14.090804 -13.858016 -6.031304 -0.270999 -80.761268 0.025868 -3.660671 -0.087876 0.015663 -0.029179 0.383717 0.000000 0.000000 0.000000 0.000000 0.000000 0.000000 0.000000 0.831116 -11.214817 3.203582 5.494024 19.895913 -9.617552 0.819753 67.292072 0.000098 -1.902288 5.051156 -0.095451 0.127004 -0.362457 0.000000 0.000000 0.000000 0.000000 0.000000 0.000000 0.000000 
9.555017 21.507326 1.054618 50.544248 -81.979254 2.202203 -0.922659 -2.515754 -5.938133 -0.176801 -2.551291 -3.394136 -2.225904 -2.713663 3.642254 4.243839 -14.842690 -8.102123 -0.095672 0.024380 -0.439535 0.000000 0.000000 0.000000 8.807429 8.079124 3.441742 -13.132219 -12.388602 -8.202016 -0.238731 -81.416704 0.027193 -3.800608 0.056575 0.011701 -0.029589 0.392570 0.000000 0.000000 0.000000 0.000000 0.000000 0.000000 0.000000 0.445046 -11.742902 3.149905 3.961098 18.328258 -12.159895 0.722880 69.338416 -0.001099 -1.953743 4.868507 -0.094905 0.127190 -0.373505 0.000000 0.000000 0.000000 0.000000 0.000000 0.000000 0.000000 
9.450192 21.502661 1.034984 51.289576 -82.138872 2.642354 -1.008588 -2.588763 -5.795799 -0.169266 -2.622298 -3.343721 -2.105816 -2.791595 3.753300 4.307267 -15.415230 -8.481320 0.048102 0.044610 -0.571953 0.000000 0.000000 0.000000 9.457650 9.195399 3.542679 -12.600798 -10.791711 -10.349058 -0.208413 -82.058464 0.028382 -3.920991 0.227369 0.006439 -0.030634 0.401066 0.000000 0.000000 0.000000 0.000000 0.000000 0.000000 0.000000 0.128409 -12.199731 3.123030 2.740528 16.562963 -14.581588 0.637470 71.364591 -0.001954 -1.937419 4.613282 -0.089758 0.127179 -0.381919 0.000000 0.000000 0.000000 0.000000 0.000000 0.000000 0.000000 
9.339190 21.494505 1.013838 52.206849 -82.261568 2.760362 -1.155797 -2.666111 -5.601268 -0.179166 -2.694517 -3.281997 -1.990624 -2.869499 3.843897 4.400759 -15.864342 -8.858281 0.175957 0.063839 -0.704108 0.000000 0.000000 0.000000 10.146713 10.138947 3.636563 -12.479318 -8.971437 -12.448863 -0.174771 -82.777840 0.029579 -4.045194 0.405308 0.000580 -0.031695 0.408909 0.000000 0.000000 0.000000 0.000000 0.000000 0.000000 0.000000 -0.125064 -12.530374 3.129661 1.847818 14.556513 -16.796953 0.559730 73.430071 -0.002143 -1.811865 4.308276 -0.079208 0.126328 -0.387600 0.000000 0.000000 0.000000 0.000000 0.000000 0.000000 0.000000 
9.222520 21.483913 0.991344 53.272180 -82.341278 2.578357 -1.360653 -2.742491 -5.371614 -0.205345 -2.763048 -3.211825 -1.877002 -2.942359 3.918720 4.510833 -16.187485 -9.221362 0.287159 0.081661 -0.831799 0.000000 0.000000 0.000000 10.866296 10.899552 3.719622 -12.741699 -7.013195 -14.487610 -0.136939 -83.566565 0.031129 -4.214641 0.560516 -0.004879 -0.031500 0.416319 0.000000 0.000000 0.000000 0.000000 0.000000 0.000000 0.000000 -0.329933 -12.734509 3.167666 1.272574 12.344403 -18.752528 0.485523 75.539812 -0.001465 -1.558612 3.997809 -0.064252 0.124013 -0.391032 0.000000 0.000000 0.000000 0.000000 0.000000 0.000000 0.000000 
9.099868 21.470941 0.967317 54.495933 -82.372774 2.105197 -1.625459 -2.815010 -5.148214 -0.248657 -2.825149 -3.143618 -1.765642 -3.007620 3.979937 4.626873 -16.369549 -9.552971 0.378612 0.097299 -0.948421 0.000000 0.000000 0.000000 11.594487 11.437193 3.791214 -13.315624 -4.933697 -16.444921 -0.092505 -84.452779 0.033134 -4.438552 0.673702 -0.009233 -0.029678 0.423207 0.000000 0.000000 0.000000 0.000000 0.000000 0.000000 0.000000 -0.493239 -12.796829 3.234878 0.995015 9.951664 -20.401545 0.410739 77.704330 0.000196 -1.169326 3.714507 -0.045989 0.119864 -0.392590 0.000000 0.000000 0.000000 0.000000 0.000000 0.000000 0.000000 
8.971297 21.455431 0.941802 55.855435 -82.354675 1.378092 -1.946818 -2.881173 -4.968609 -0.308498 -2.878499 -3.087100 -1.658427 -3.063311 4.030807 4.740164 -16.409700 -9.838734 0.447884 0.110075 -1.048239 0.000000 0.000000 0.000000 12.305925 11.737479 3.851419 -14.118709 -2.773348 -18.300674 -0.040121 -85.447647 0.035621 -4.717401 0.731698 -0.012083 -0.026105 0.429504 0.000000 0.000000 0.000000 0.000000 0.000000 0.000000 0.000000 -0.619166 -12.715723 3.325684 0.978377 7.429280 -21.720108 0.332025 79.915040 0.002805 -0.654529 3.484033 -0.025816 0.113749 -0.392719 0.000000 0.000000 0.000000 0.000000 0.000000 0.000000 0.000000 
8.836815 21.436833 0.915349 57.261793 -82.293823 0.504491 -2.303564 -2.937942 -4.861572 -0.379309 -2.920783 -3.048087 -1.557587 -3.107589 4.080985 4.843613 -16.362774 -10.077289 0.497397 0.120020 -1.129836 0.000000 0.000000 0.000000 12.953967 11.882381 3.898358 -15.050184 -0.698395 -20.030057 0.018291 -86.507503 0.038485 -5.036781 0.736210 -0.012926 -0.020978 0.435215 0.000000 0.000000 0.000000 0.000000 0.000000 0.000000 0.000000 -0.714402 -12.551496 3.425992 1.172365 4.924352 -22.717259 0.248412 82.120172 0.006165 -0.041518 3.319872 -0.004636 0.105667 -0.391936 0.000000 0.000000 0.000000 0.000000 0.000000 0.000000 0.000000 
8.696761 21.414559 0.888630 58.608829 -82.200871 -0.397917 -2.671738 -2.983624 -4.843419 -0.454562 -2.950927 -3.029839 -1.465364 -3.139889 4.137787 4.933932 -16.297476 -10.271377 0.531699 0.127484 -1.193444 0.000000 0.000000 0.000000 13.506775 11.963894 3.928346 -16.037159 1.133124 -21.599049 0.080468 -87.592681 0.041555 -5.377057 0.698419 -0.011863 -0.014661 0.440322 0.000000 0.000000 0.000000 0.000000 0.000000 0.000000 0.000000 -0.786727 -12.379849 3.519138 1.530091 2.609798 -23.415201 0.161161 84.260027 0.009977 0.631252 3.217445 0.017049 0.095854 -0.390626 0.000000 0.000000 0.000000 0.000000 0.000000 0.000000 0.000000 
8.551470 21.388436 0.861875 59.853040 -82.083579 -1.281213 -3.045308 -3.019125 -4.924196 -0.533023 -2.969679 -3.037420 -1.385158 -3.161435 4.196150 5.012732 -16.216901 -10.412999 0.549825 0.132149 -1.236187 0.000000 0.000000 0.000000 13.971944 11.962667 3.940706 -17.049820 2.748050 -22.969494 0.147622 -88.733725 0.044576 -5.712789 0.631540 -0.009093 -0.007814 0.444541 0.000000 0.000000 0.000000 0.000000 0.000000 0.000000 0.000000 -0.833166 -12.201260 3.597243 2.013926 0.538300 -23.821101 0.071449 86.319799 0.013888 1.318875 3.153529 0.038340 0.084994 -0.388715 0.000000 0.000000 0.000000 0.000000 0.000000 0.000000 0.000000 
8.401602 21.357830 0.835662 60.909947 -81.955247 -2.063348 -3.406435 -3.044476 -5.096106 -0.609857 -2.977555 -3.069556 -1.318566 -3.172974 4.254992 5.082590 -16.162900 -10.506690 0.555590 0.134428 -1.259683 0.000000 0.000000 0.000000 14.351153 11.931054 3.931831 -18.068104 4.081633 -24.101897 0.218311 -89.915279 0.047297 -6.016673 0.551632 -0.005316 -0.001028 0.447832 0.000000 0.000000 0.000000 0.000000 0.000000 0.000000 0.000000 -0.858847 -12.060834 3.648075 2.594440 -1.177824 -23.957825 -0.017708 88.258222 0.017527 1.972186 3.100833 0.057933 0.073811 -0.386191 0.000000 0.000000 0.000000 0.000000 0.000000 0.000000 0.000000 
8.247940 21.322802 0.810814 61.679799 -81.832586 -2.652495 -3.729685 -3.059224 -5.337453 -0.677905 -2.975146 -3.120498 -1.265658 -3.175054 4.314433 5.145487 -16.196608 -10.564262 0.555807 0.135199 -1.268297 0.000000 0.000000 0.000000 14.647568 11.949169 3.896046 -19.091022 5.042172 -24.955530 -179.710143 -88.896287 -179.950501 -6.262738 0.474207 -0.001133 0.005174 0.450306 0.000000 0.000000 0.000000 0.000000 0.000000 0.000000 0.000000 -0.877209 -12.026367 3.658751 3.257648 -2.402006 -23.851900 179.897934 89.978244 -179.979429 2.544255 3.033399 0.074127 0.063063 -0.383120 0.000000 0.000000 0.000000 0.000000 0.000000 0.000000 0.000000 
8.091092 21.283369 0.787533 62.145734 -81.724561 -3.045277 -4.011450 -3.064211 -5.625835 -0.736652 -2.963647 -3.186769 -1.227828 -3.168627 4.365237 5.206119 -16.301784 -10.585120 0.549673 0.134417 -1.262527 0.000000 0.000000 0.000000 14.885413 11.986710 3.833092 -20.135625 5.707942 -25.501623 -179.637563 -87.682766 -179.949044 -6.425045 0.405806 0.002758 0.010137 0.451906 0.000000 0.000000 0.000000 0.000000 0.000000 0.000000 0.000000 -0.886244 -12.077035 3.628813 3.995433 -3.150174 -23.508495 179.820462 88.394697 -179.977216 2.994548 2.932346 0.085223 0.053703 -0.379375 0.000000 0.000000 0.000000 0.000000 0.000000 0.000000 0.000000 
7.931696 21.239273 0.766217 62.273134 -81.641193 -3.223261 -4.240234 -3.059459 -5.931804 -0.783469 -2.943989 -3.261812 -1.205935 -3.154165 4.401662 5.266997 -16.478599 -10.573954 0.537800 0.132285 -1.244691 0.000000 0.000000 0.000000 15.074499 12.042889 3.742571 -21.216360 6.119562 -25.719775 -179.565092 -86.450542 -179.948497 -6.483215 0.349183 0.006055 0.013341 0.452684 0.000000 0.000000 0.000000 0.000000 0.000000 0.000000 0.000000 -0.886602 -12.211302 3.558266 4.804317 -3.424000 -22.936958 179.752100 87.007222 -179.975971 3.293324 2.793654 0.089923 0.046486 -0.375073 0.000000 0.000000 0.000000 0.000000 0.000000 0.000000 0.000000 
